<svg width="120" height="120" viewBox="0 0 120 120" fill="none" xmlns="http://www.w3.org/2000/svg">
<path d="M104.72 51.92L95.58 42.78C92.98 40.18 89.53 38.75 85.86 38.75H61.25V86.25H100C104.825 86.25 108.75 82.325 108.75 77.5V61.645C108.75 57.97 107.32 54.52 104.72 51.92Z" fill="black" fill-opacity="0.52"/>
<path d="M68.75 32.5V86.25H20C15.2 86.25 11.25 82.3 11.25 77.5V32.5C11.25 27.7 15.2 23.75 20 23.75H60C64.8 23.75 68.75 27.7 68.75 32.5Z" fill="#727272"/>
<path d="M51.25 23.75V52.5C51.25 53.9 50.5 55.15 49.25 55.8C48.7 56.1 48.1 56.25 47.5 56.25C46.75 56.25 46.05 56.05 45.4 55.6L40 52L34.6 55.6C33.45 56.4 31.95 56.45 30.75 55.8C29.5 55.15 28.75 53.9 28.75 52.5V23.75H51.25Z" fill="black" fill-opacity="0.52"/>
<path d="M35 96.25C42.5939 96.25 48.75 90.0939 48.75 82.5C48.75 74.9061 42.5939 68.75 35 68.75C27.4061 68.75 21.25 74.9061 21.25 82.5C21.25 90.0939 27.4061 96.25 35 96.25Z" fill="#222222"/>
<path d="M85 96.25C92.5939 96.25 98.75 90.0939 98.75 82.5C98.75 74.9061 92.5939 68.75 85 68.75C77.4061 68.75 71.25 74.9061 71.25 82.5C71.25 90.0939 77.4061 96.25 85 96.25Z" fill="#222222"/>
</svg>
