<svg width="40" height="40" viewBox="0 0 40 40" fill="none" xmlns="http://www.w3.org/2000/svg">
<g clip-path="url(#clip0_290_794)">
<path d="M28.75 1C30.7447 0.999974 32.7085 1.67517 34.3926 2.96094C36.0787 4.24834 37.4108 6.09308 38.2021 8.27539C38.9936 10.458 39.2028 12.8661 38.7988 15.1904C38.3948 17.5147 37.3986 19.6341 35.9541 21.2861L35.9521 21.2891L21.0195 38.499C20.8727 38.6682 20.7052 38.7941 20.5312 38.877C20.3579 38.9595 20.1778 39 20 39C19.8222 39 19.6421 38.9595 19.4688 38.877C19.2948 38.7941 19.1273 38.6682 18.9805 38.499L4.04688 21.2891L4.04395 21.2861C2.59962 19.6338 1.60398 17.5138 1.2002 15.1895C0.796529 12.8653 1.00638 10.4577 1.79785 8.27539C2.58931 6.09315 3.92128 4.24829 5.60742 2.96094C7.29156 1.6752 9.25533 1.00002 11.25 1C13.8952 1 16.0427 2.15308 18.0234 4.41406L19.1963 5.99902L20.0254 7.12109L20.8213 5.97461L21.9863 4.2959C23.9468 2.06524 26.0873 1 28.75 1Z" stroke="#222222" stroke-width="2"/>
</g>
<defs>
<clipPath id="clip0_290_794">
<rect width="40" height="40" fill="white"/>
</clipPath>
</defs>
</svg>
