<svg width="44" height="52" viewBox="0 0 44 52" fill="none" xmlns="http://www.w3.org/2000/svg">
<path d="M22 23.7143C23.424 23.7143 24.8161 23.3121 26.0001 22.5587C27.1841 21.8052 28.107 20.7342 28.6519 19.4813C29.1969 18.2283 29.3395 16.8495 29.0617 15.5194C28.7838 14.1892 28.0981 12.9674 27.0912 12.0084C26.0842 11.0494 24.8013 10.3963 23.4047 10.1318C22.008 9.86718 20.5603 10.003 19.2447 10.522C17.9291 11.041 16.8046 11.9199 16.0134 13.0475C15.2223 14.1752 14.8 15.5009 14.8 16.8571C14.8 18.6758 15.5586 20.4199 16.9088 21.7059C18.2591 22.9918 20.0904 23.7143 22 23.7143ZM22 12.2857C22.9494 12.2857 23.8774 12.5538 24.6667 13.0561C25.4561 13.5585 26.0713 14.2724 26.4346 15.1077C26.7979 15.9431 26.893 16.8622 26.7078 17.749C26.5226 18.6358 26.0654 19.4503 25.3941 20.0896C24.7228 20.729 23.8675 21.1643 22.9364 21.3407C22.0053 21.5171 21.0402 21.4266 20.1631 21.0806C19.286 20.7346 18.5364 20.1487 18.0089 19.3969C17.4815 18.6451 17.2 17.7613 17.2 16.8571C17.2 15.6447 17.7057 14.482 18.6059 13.6247C19.5061 12.7673 20.727 12.2857 22 12.2857ZM22 26C18.8174 26 15.7652 27.2041 13.5147 29.3474C11.2643 31.4906 10 34.3975 10 37.4286V40.8571C10 41.1602 10.1264 41.4509 10.3515 41.6653C10.5765 41.8796 10.8817 42 11.2 42C11.5183 42 11.8235 41.8796 12.0485 41.6653C12.2736 41.4509 12.4 41.1602 12.4 40.8571V37.4286C12.4 35.0037 13.4114 32.6782 15.2118 30.9636C17.0121 29.249 19.4539 28.2857 22 28.2857C24.5461 28.2857 26.9879 29.249 28.7882 30.9636C30.5886 32.6782 31.6 35.0037 31.6 37.4286V40.8571C31.6 41.1602 31.7264 41.4509 31.9515 41.6653C32.1765 41.8796 32.4817 42 32.8 42C33.1183 42 33.4235 41.8796 33.6485 41.6653C33.8736 41.4509 34 41.1602 34 40.8571V37.4286C34 34.3975 32.7357 31.4906 30.4853 29.3474C28.2348 27.2041 25.1826 26 22 26Z" fill="#111111"/>
</svg>
